<?xml version="1.0" standalone="no"?>
<!DOCTYPE svg PUBLIC "-//W3C//DTD SVG 20010904//EN"
 "http://www.w3.org/TR/2001/REC-SVG-20010904/DTD/svg10.dtd">
<svg version="1.0" xmlns="http://www.w3.org/2000/svg"
 width="48.000000pt" height="48.000000pt" viewBox="0 0 48.000000 48.000000"
 preserveAspectRatio="xMidYMid meet">
<metadata>
Created by potrace 1.13, written by Peter Selinger 2001-2015
</metadata>
<g transform="translate(0.000000,48.000000) scale(0.100000,-0.100000)"
fill="#000000" stroke="none">
<path d="M190 459 c0 -4 -14 -9 -31 -13 -47 -9 -125 -95 -135 -148 -10 -60 -7
-94 15 -144 46 -103 160 -154 266 -119 171 57 209 272 67 380 -24 19 -53 35
-63 35 -11 0 -19 3 -19 8 0 4 -22 7 -50 7 -27 0 -50 -3 -50 -6z m67 -83 c4 -8
14 -16 22 -18 7 -2 36 -14 65 -28 43 -21 52 -31 60 -63 14 -54 -15 -91 -73
-95 -23 -2 -48 0 -55 5 -6 4 0 -3 14 -16 14 -13 19 -20 13 -17 -7 4 -13 2 -13
-5 0 -7 -3 -9 -7 -6 -11 12 -33 -14 -33 -39 0 -13 -4 -24 -10 -24 -5 0 -10 16
-10 36 0 31 -3 35 -20 29 -28 -9 -44 3 -29 21 9 12 5 14 -25 14 -42 0 -86 36
-86 71 0 33 29 74 64 89 17 7 34 12 39 11 4 0 7 4 7 10 0 6 7 9 15 5 9 -3 19
3 25 14 13 24 26 25 37 6z"/>
</g>
</svg>
